<?xml version="1.0" encoding="UTF-8" standalone="no"?>
<!-- Created with Inkscape (http://www.inkscape.org/) -->

<svg
   width="109.44873mm"
   height="59.073669mm"
   viewBox="0 0 109.44873 59.073669"
   version="1.1"
   id="svg1"
   inkscape:version="1.4.2 (1:1.4.2+202505120738+ebf0e940d0)"
   sodipodi:docname="logo.svg"
   xmlns:inkscape="http://www.inkscape.org/namespaces/inkscape"
   xmlns:sodipodi="http://sodipodi.sourceforge.net/DTD/sodipodi-0.dtd"
   xmlns="http://www.w3.org/2000/svg"
   xmlns:svg="http://www.w3.org/2000/svg">
  <sodipodi:namedview
     id="namedview1"
     pagecolor="#ffffff"
     bordercolor="#666666"
     borderopacity="1.0"
     inkscape:showpageshadow="2"
     inkscape:pageopacity="0.0"
     inkscape:pagecheckerboard="0"
     inkscape:deskcolor="#d1d1d1"
     inkscape:document-units="mm"
     inkscape:zoom="1.0167041"
     inkscape:cx="216.87726"
     inkscape:cy="78.193842"
     inkscape:window-width="1920"
     inkscape:window-height="1008"
     inkscape:window-x="0"
     inkscape:window-y="0"
     inkscape:window-maximized="1"
     inkscape:current-layer="g3"
     showguides="true">
    <sodipodi:guide
       position="34.014998,41.646761"
       orientation="0,-1"
       id="guide3"
       inkscape:locked="false" />
    <sodipodi:guide
       position="50.173849,26.260068"
       orientation="0,-1"
       id="guide4"
       inkscape:locked="false" />
  </sodipodi:namedview>
  <defs
     id="defs1" />
  <g
     inkscape:label="Ebene 1"
     inkscape:groupmode="layer"
     id="layer1"
     transform="translate(-54.941783,-36.23796)">
    <g
       id="g3"
       transform="matrix(0.26458333,0,0,0.26458333,16.209932,-75.079305)">
      <text
         fill="#70b6ee"
         font-family="ComicSansMS-Bold"
         font-size="84.2557px"
         letter-spacing="2"
         id="text1"
         style="line-height:0%;stroke-width:1;fill:#0babe1;fill-opacity:1"
         x="149.60796"
         y="579.12512"
         transform="scale(1.0655365,0.93849436)"><tspan
           style="font-style:normal;font-variant:normal;font-weight:600;font-stretch:normal;font-family:FreeSans;-inkscape-font-specification:'FreeSans Semi-Bold';stroke-width:1;fill:#0babe1;fill-opacity:1"
           id="tspan2">S</tspan></text>
      <text
         fill="#70b6ee"
         font-family="ComicSansMS-Bold"
         font-size="84.3821px"
         letter-spacing="2"
         id="text2"
         style="line-height:0%;stroke-width:1;fill:#0babe1;fill-opacity:1"
         x="209.99359"
         y="575.61346"
         transform="scale(1.0578355,0.94532656)"><tspan
           style="font-style:normal;font-variant:normal;font-weight:600;font-stretch:normal;font-family:FreeSans;-inkscape-font-specification:'FreeSans Semi-Bold';stroke-width:1;fill:#0babe1;fill-opacity:1"
           id="tspan1">W</tspan></text>
      <text
         fill="#70b6ee"
         font-family="ComicSansMS-Bold"
         font-size="87.5261px"
         letter-spacing="2"
         id="text3"
         style="line-height:0%;stroke-width:1;fill:#0babe1;fill-opacity:1"
         x="466.88974"
         y="584.34821"
         transform="scale(1.0732976,0.93170804)"><tspan
           style="font-style:normal;font-variant:normal;font-weight:600;font-stretch:normal;font-family:FreeSans;-inkscape-font-specification:'FreeSans Semi-Bold';stroke-width:1;fill:#0babe1;fill-opacity:1"
           id="tspan3">P</tspan></text>
      <path
         id="path3039"
         inkscape:export-filename="C:\programme\wamp\www\firmen\swoop\_inkscape\logo.png"
         inkscape:connector-curvature="0"
         inkscape:export-ydpi="356"
         inkscape:export-xdpi="356"
         opacity="0.9"
         fill="#70b6ee"
         enable-background="new    "
         d="m 426.974,643.382 c -6.648,-1.639 -12.07,-5.549 -17.146,-12.363 -5.94,-7.979 -9.177,-17.473 -10.188,-29.895 -0.241,-2.957 -0.657,-5.162 -0.926,-4.896 -0.269,0.266 -1.738,3.852 -3.266,7.973 -9.692,26.129 -22.635,37.547 -41.288,36.424 -9.176,-0.553 -16.464,-4.725 -19.172,-10.975 -0.967,-2.232 -1.113,-3.826 -0.833,-9.039 0.187,-3.48 0.229,-6.33 0.093,-6.33 -0.136,0 -1.678,0.906 -3.427,2.016 -4.932,3.123 -8.843,4.406 -14.455,4.746 -13.511,0.816 -29.644,-6.445 -32.097,-14.447 -1.007,-3.283 -0.341,-7.994 1.63,-11.537 0.904,-1.625 4.524,-6.021 8.044,-9.768 11.567,-12.311 17.692,-22.57 21.824,-36.557 3.054,-10.338 3.178,-16.883 0.616,-32.389 -4.27,-25.844 -3.302,-39.807 3.816,-55.064 7.664,-16.424 23.426,-28.311 46.827,-35.311 7.107,-2.125 9.896,-2.711 22.139,-4.646 4.726,-0.748 28.164,-0.812 31.95,-0.087 1.507,0.289 4.798,0.837 7.314,1.22 24.366,3.709 46.11,14.844 56.854,29.115 8.672,11.516 12.323,23.26 12.349,39.713 0.016,10.346 -0.464,14.357 -3.55,29.668 -2.704,13.42 -3.35,21.133 -2.58,30.822 1.729,21.773 5.564,34.084 13.965,44.832 5.519,7.063 7.111,10.467 7.189,15.369 0.061,3.756 -0.155,4.623 -1.646,6.627 -3.494,4.689 -7.681,6.787 -15.503,7.766 -13.505,1.688 -27.41,-3.961 -37.113,-15.078 -1.641,-1.879 -3.134,-3.283 -3.317,-3.121 -0.185,0.162 0.029,2.836 0.476,5.939 1.013,7.037 0.232,12.152 -2.635,17.287 -5.271,9.441 -16.059,14.426 -25.944,11.986 z m 35.193,-100.449 c 8.025,-1.771 13.171,-4.635 17.513,-9.742 8.78,-10.33 8.252,-26.264 -1.238,-37.344 -5.401,-6.307 -12.787,-9.459 -22.159,-9.459 -9.195,0 -17.292,3.07 -24.206,9.18 -7.311,6.459 -10.113,14.166 -8.259,22.709 2.679,12.34 15.143,22.998 29.343,25.09 1.854,0.273 3.555,0.525 3.778,0.563 0.224,0.036 2.577,-0.411 5.228,-0.997 z m -26.379,-14.437 c -1.19,-0.92 -2.892,-2.93 -3.78,-4.465 -1.387,-2.393 -1.615,-3.566 -1.608,-8.262 0.01,-6.504 1.019,-8.635 6.058,-12.789 4.58,-3.777 10.455,-5.281 15.075,-3.861 2.228,0.684 2.651,1.508 1.054,2.047 -1.289,0.436 -2.916,3.205 -2.916,4.961 0,2.031 2.289,3.881 4.804,3.881 2.167,0 5.652,-2.418 5.652,-3.92 0,-1.453 1.34,-0.586 2.725,1.76 2.174,3.686 2.056,9.529 -0.278,13.734 -0.971,1.75 -2.544,3.814 -3.496,4.588 l -1.73,1.408 1.11,-1.924 c 0.611,-1.059 0.968,-2.252 0.793,-2.654 -0.507,-1.164 -5.407,-1.613 -7.469,-0.684 -3.528,1.588 -5.87,1.689 -8.928,0.385 -3.309,-1.412 -4.836,-3.197 -5.904,-6.904 -1.426,-4.945 -5.577,-3.143 -5.577,2.424 0,3.66 1.426,6.516 4.742,9.502 3.103,2.794 2.902,3.273 -0.327,0.773 z m -49.278,7.002 c 3.419,-2.082 6.567,-5.588 8.693,-9.68 5.837,-11.24 -3.396,-29.301 -18.643,-36.465 -14.636,-6.875 -33.462,-3.209 -37.745,7.352 -2.67,6.586 0.79,17.336 7.896,24.537 l 2.274,2.305 -1.285,-3.299 c -2.513,-6.447 -1.199,-14.193 3.206,-18.9 1.048,-1.121 3.48,-2.801 5.405,-3.736 4.453,-2.162 11.102,-2.41 15.228,-0.566 3.286,1.469 3.76,2.594 1.093,2.594 -2.23,0 -3.345,1.268 -3.345,3.805 0,2.207 1.737,3.684 4.334,3.684 2.833,0 4.464,-2 3.854,-4.729 l -0.424,-1.896 2.616,2.391 c 6.958,6.359 5.89,17.992 -2.232,24.295 -4.095,3.178 -8.395,4.381 -14.131,3.957 -2.46,-0.182 -4.473,-0.238 -4.473,-0.125 0,0.859 11.109,5.234 17.318,6.82 3.708,0.945 5.697,0.495 10.361,-2.344 z m -13.971,-7.776 c 4.344,-1.959 4.753,-3.008 1.978,-5.068 -2.086,-1.549 -2.588,-1.668 -5.69,-1.348 -6.263,0.645 -11.689,-3.07 -13.014,-8.91 -0.854,-3.766 -4.995,-3.799 -6.141,-0.049 -1.771,5.801 3.79,13.559 11.447,15.965 3.425,1.076 8.284,0.824 11.42,-0.59 z"
         style="fill:#0babe1;fill-opacity:1" />
    </g>
  </g>
</svg>
